<svg width="20" height="20" viewBox="0 0 20 20" fill="none" xmlns="http://www.w3.org/2000/svg">
<path d="M15.2499 12.4672C13.8749 12.3422 13.1249 14.2172 12.1249 14.7172C10.4999 15.5922 7.49986 12.4672 7.49986 12.4672C7.49986 12.4672 4.37486 9.46715 5.12486 7.84215C5.74986 6.84215 7.62486 6.09215 7.49986 4.71715C7.37486 3.46715 4.62486 -1.03285 3.24986 0.217152C0.249864 2.96715 -0.000136117 4.09215 -0.000136117 6.34215C-0.125136 10.2172 4.87486 15.0922 4.87486 15.0922C5.37486 15.5922 9.74986 20.0922 13.6249 19.9672C15.8749 19.9672 16.9999 19.7172 19.7499 16.7172C20.9999 15.3422 16.6249 12.5922 15.2499 12.4672Z" fill="black"/>
</svg>
