<svg width="28" height="29" viewBox="0 0 28 29" fill="none" xmlns="http://www.w3.org/2000/svg">
<path d="M0 15.865V3.17301C0 2.30043 0.304889 1.55372 0.914667 0.932864C1.52444 0.312012 2.25659 0.00105767 3.11111 0H12.4444V15.865H0ZM15.5556 0H24.8889C25.7444 0 26.4771 0.310955 27.0869 0.932864C27.6967 1.55477 28.001 2.30149 28 3.17301V9.51902H15.5556V0ZM15.5556 28.5571V12.692H28V25.3841C28 26.2566 27.6956 27.0039 27.0869 27.6258C26.4781 28.2477 25.7455 28.5581 24.8889 28.5571H15.5556ZM0 19.038H12.4444V28.5571H3.11111C2.25556 28.5571 1.52341 28.2466 0.914667 27.6258C0.305926 27.0049 0.00103704 26.2577 0 25.3841V19.038Z" fill="#49987A"/>
</svg>
