<svg width="28" height="28" viewBox="0 0 28 28" fill="none" xmlns="http://www.w3.org/2000/svg">
<path fill-rule="evenodd" clip-rule="evenodd" d="M18.8126 13.9999C18.8126 13.7679 18.7204 13.5453 18.5563 13.3812C18.3922 13.2171 18.1696 13.1249 17.9376 13.1249H5.13575L7.42358 11.1649C7.51091 11.0902 7.58266 10.9989 7.63473 10.8964C7.6868 10.7939 7.71817 10.6822 7.72705 10.5676C7.73594 10.453 7.72216 10.3377 7.6865 10.2284C7.65085 10.1191 7.59401 10.0179 7.51925 9.9306C7.44448 9.84327 7.35325 9.77153 7.25075 9.71946C7.14826 9.66739 7.03651 9.63601 6.92189 9.62713C6.80728 9.61825 6.69203 9.63203 6.58274 9.66768C6.47344 9.70334 6.37224 9.76017 6.28491 9.83494L2.20158 13.3349C2.10552 13.4171 2.0284 13.5191 1.97552 13.6339C1.92265 13.7487 1.89526 13.8735 1.89526 13.9999C1.89526 14.1263 1.92265 14.2512 1.97552 14.366C2.0284 14.4808 2.10552 14.5828 2.20158 14.6649L6.28491 18.1649C6.46128 18.3159 6.69041 18.3907 6.92189 18.3727C7.15338 18.3548 7.36825 18.2456 7.51925 18.0693C7.67024 17.8929 7.74499 17.6638 7.72705 17.4323C7.70911 17.2008 7.59995 16.9859 7.42358 16.8349L5.13691 14.8749H17.9376C18.1696 14.8749 18.3922 14.7827 18.5563 14.6187C18.7204 14.4546 18.8126 14.232 18.8126 13.9999Z" fill="#DFE0DF"/>
<path d="M10.9375 9.33325C10.9375 10.1523 10.9375 10.5618 11.1347 10.8569C11.2196 10.9838 11.3286 11.0928 11.4555 11.1778C11.7507 11.3749 12.1602 11.3749 12.9792 11.3749H17.9375C18.6337 11.3749 19.3014 11.6515 19.7937 12.1438C20.2859 12.636 20.5625 13.3037 20.5625 13.9999C20.5625 14.6961 20.2859 15.3638 19.7937 15.8561C19.3014 16.3484 18.6337 16.6249 17.9375 16.6249H12.9792C12.1602 16.6249 11.7507 16.6249 11.4555 16.8209C11.3285 16.9062 11.2195 17.0156 11.1347 17.1429C10.9375 17.4381 10.9375 17.8476 10.9375 18.6666C10.9375 21.9659 10.9375 23.6168 11.963 24.6411C12.9873 25.6666 14.637 25.6666 17.9363 25.6666H19.103C22.4047 25.6666 24.0532 25.6666 25.0787 24.6411C26.1042 23.6168 26.1042 21.9659 26.1042 18.6666V9.33325C26.1042 6.03392 26.1042 4.38309 25.0787 3.35875C24.0532 2.33442 22.4035 2.33325 19.1042 2.33325H17.9375C14.637 2.33325 12.9873 2.33325 11.963 3.35875C10.9375 4.38309 10.9375 6.03392 10.9375 9.33325Z" fill="#DFE0DF"/>
</svg>
