<svg width="19" height="24" viewBox="0 0 19 24" fill="none" xmlns="http://www.w3.org/2000/svg">
<path d="M0 19.8333V17.5H2.33333V9.33333C2.33333 7.71945 2.81944 6.28561 3.79167 5.03184C4.76389 3.77806 6.02778 2.95634 7.58333 2.56667V1.75C7.58333 1.26389 7.75367 0.850891 8.09433 0.511003C8.435 0.171114 8.848 0.000780429 9.33333 2.65152e-06C9.81867 -0.000775126 10.2321 0.169558 10.5735 0.511003C10.9149 0.852447 11.0849 1.26545 11.0833 1.75V2.56667C12.6389 2.95556 13.9028 3.77728 14.875 5.03184C15.8472 6.28639 16.3333 7.72022 16.3333 9.33333V17.5H18.6667V19.8333H0ZM9.33333 23.3333C8.69167 23.3333 8.14256 23.1051 7.686 22.6485C7.22944 22.1919 7.00078 21.6424 7 21H11.6667C11.6667 21.6417 11.4384 22.1912 10.9818 22.6485C10.5253 23.1058 9.97578 23.3341 9.33333 23.3333ZM8.16667 15.1667H10.5V12.8333H12.8333V10.5H10.5V8.16667H8.16667V10.5H5.83333V12.8333H8.16667V15.1667Z" fill="#49987A"/>
</svg>
