<svg width="26" height="27" viewBox="0 0 26 27" fill="none" xmlns="http://www.w3.org/2000/svg">
<ellipse cx="13" cy="13.194" rx="13" ry="13.194" fill="#D9D9D9"/>
<path d="M13 2.95361C11.9943 2.95361 11.0299 3.35309 10.3188 4.06417C9.60777 4.77524 9.20829 5.73967 9.20829 6.74528C9.20829 7.75089 9.60777 8.71532 10.3188 9.42639C11.0299 10.1375 11.9943 10.5369 13 10.5369C14.0056 10.5369 14.97 10.1375 15.6811 9.42639C16.3921 8.71532 16.7916 7.75089 16.7916 6.74528C16.7916 5.73967 16.3921 4.77524 15.6811 4.06417C14.97 3.35309 14.0056 2.95361 13 2.95361ZM17.7395 12.4328H8.26038C7.50617 12.4328 6.78285 12.7324 6.24954 13.2657C5.71623 13.799 5.41663 14.5223 5.41663 15.2765C5.41663 17.3923 6.28681 19.0872 7.71438 20.2341C9.11919 21.3622 11.0036 21.9119 13 21.9119C14.9963 21.9119 16.8807 21.3622 18.2855 20.2341C19.7112 19.0872 20.5833 17.3923 20.5833 15.2765C20.5833 14.5223 20.2837 13.799 19.7504 13.2657C19.2171 12.7324 18.4938 12.4328 17.7395 12.4328Z" fill="black"/>
</svg>
