<svg width="42" height="42" viewBox="0 0 42 42" fill="none" xmlns="http://www.w3.org/2000/svg">
<path d="M36.75 36.75H5.25V8.75C5.25 6.825 6.825 5.25 8.75 5.25H33.25C35.175 5.25 36.75 6.825 36.75 8.75V36.75Z" fill="#EDEDED"/>
<path d="M5.25 36.75H36.75V38.5H5.25V36.75Z" fill="#EDEDED"/>
<path d="M27.125 23.625H32.375V28H27.125V23.625ZM18.375 23.625H23.625V28H18.375V23.625ZM9.625 23.625H14.875V28H9.625V23.625ZM27.125 30.625H32.375V35H27.125V30.625ZM9.625 30.625H14.875V35H9.625V30.625ZM27.125 16.625H32.375V21H27.125V16.625ZM18.375 16.625H23.625V21H18.375V16.625ZM9.625 16.625H14.875V21H9.625V16.625ZM27.125 9.625H32.375V14H27.125V9.625ZM18.375 9.625H23.625V14H18.375V9.625ZM9.625 9.625H14.875V14H9.625V9.625ZM18.375 30.625H23.625V38.5H18.375V30.625Z" fill="#49987A"/>
</svg>
