<svg width="42" height="39" viewBox="0 0 42 39" fill="none" xmlns="http://www.w3.org/2000/svg">
<path d="M41.6033 34.1652L23.9224 1.72502C22.6692 -0.575007 19.3308 -0.575007 18.0765 1.72502L0.396742 34.1652C0.124639 34.6645 -0.0117814 35.225 0.000797464 35.792C0.0133764 36.3589 0.174525 36.913 0.468513 37.4C0.762501 37.8871 1.17928 38.2905 1.67818 38.5709C2.17708 38.8514 2.74104 38.9992 3.31502 39H38.6798C39.2542 39.0001 39.8188 38.8529 40.3184 38.5728C40.8181 38.2928 41.2356 37.8894 41.5302 37.4022C41.8248 36.915 41.9864 36.3606 41.9992 35.7933C42.012 35.2259 41.8756 34.6649 41.6033 34.1652ZM21 33.9777C20.5896 33.9777 20.1885 33.8574 19.8473 33.6322C19.5061 33.4069 19.2401 33.0868 19.0831 32.7122C18.9261 32.3376 18.885 31.9255 18.965 31.5278C19.0451 31.1302 19.2427 30.7649 19.5329 30.4782C19.823 30.1915 20.1927 29.9963 20.5952 29.9172C20.9977 29.8381 21.4149 29.8787 21.794 30.0338C22.1731 30.189 22.4972 30.4517 22.7252 30.7888C22.9532 31.126 23.0749 31.5223 23.0749 31.9277C23.0749 32.4714 22.8563 32.9928 22.4671 33.3773C22.078 33.7617 21.5503 33.9777 21 33.9777ZM23.2533 13.3604L22.6578 25.865C22.6578 26.3 22.4829 26.7171 22.1716 27.0247C21.8604 27.3322 21.4382 27.505 20.9979 27.505C20.5577 27.505 20.1355 27.3322 19.8242 27.0247C19.5129 26.7171 19.338 26.3 19.338 25.865L18.7426 13.3656C18.7292 13.0669 18.7768 12.7686 18.8826 12.4885C18.9884 12.2084 19.1502 11.9522 19.3583 11.7351C19.5664 11.5181 19.8167 11.3447 20.0941 11.2253C20.3715 11.1058 20.6704 11.0428 20.973 11.0399H20.9948C21.2995 11.0398 21.601 11.1006 21.8812 11.2187C22.1614 11.3369 22.4145 11.5099 22.6252 11.7273C22.8359 11.9448 22.9998 12.2021 23.107 12.4839C23.2142 12.7656 23.2626 13.0659 23.2491 13.3666L23.2533 13.3604Z" fill="#EAEAEA"/>
</svg>
