<svg width="19" height="18" viewBox="0 0 19 18" fill="none" xmlns="http://www.w3.org/2000/svg">
<path d="M6.68242 13C4.81477 13 3.23429 12.3707 1.94099 11.112C0.647681 9.85333 0.00068592 8.316 5.43949e-07 6.5C-0.000684832 4.684 0.64631 3.14667 1.94099 1.888C3.23566 0.629333 4.81614 0 6.68242 0C8.5487 0 10.1295 0.629333 11.4249 1.888C12.7202 3.14667 13.3669 4.684 13.3648 6.5C13.3648 7.23333 13.2449 7.925 13.005 8.575C12.6152 9.63116 12.649 10.9037 13.456 11.6887L17.7855 15.9C17.974 16.0833 18.0682 16.3167 18.0682 16.6C18.0682 16.8833 17.974 17.1167 17.7855 17.3C17.597 17.4833 17.3571 17.575 17.0659 17.575C16.7746 17.575 16.5347 17.4833 16.3462 17.3L12.0376 13.109C11.2073 12.3013 9.90929 12.2681 8.81565 12.65C8.14741 12.8833 7.43633 13 6.68242 13ZM6.68242 11C7.9675 11 9.05999 10.5627 9.95988 9.688C10.8598 8.81333 11.3094 7.75067 11.3087 6.5C11.308 5.24933 10.8584 4.187 9.95988 3.313C9.06136 2.439 7.96887 2.00133 6.68242 2C5.39597 1.99867 4.30382 2.43633 3.40598 3.313C2.50813 4.18967 2.05818 5.252 2.05613 6.5C2.05407 7.748 2.50402 8.81067 3.40598 9.688C4.30793 10.5653 5.40008 11.0027 6.68242 11Z" fill="#777777"/>
</svg>
