<svg width="26" height="26" viewBox="0 0 26 26" fill="none" xmlns="http://www.w3.org/2000/svg">
<path d="M20.0668 7.51642C20.8102 8.58225 21.3136 9.79668 21.5421 11.0759H24.3333V14.2574H21.5421C21.3136 15.5367 20.8102 16.7511 20.0668 17.8169L22.0414 19.7915L19.7915 22.0414L17.8169 20.0668C16.7511 20.8102 15.5367 21.3136 14.2574 21.5421V24.3333H11.0759V21.5421C9.79668 21.3136 8.58225 20.8102 7.51642 20.0668L5.54183 22.0414L3.29192 19.7915L5.2665 17.8169C4.52309 16.7511 4.01976 15.5367 3.79125 14.2574H1V11.0759H3.79125C4.01976 9.79668 4.52309 8.58225 5.2665 7.51642L3.29192 5.54183L5.54183 3.29192L7.51642 5.2665C8.58225 4.52309 9.79668 4.01976 11.0759 3.79125V1H14.2574V3.79125C15.5367 4.01976 16.7511 4.52309 17.8169 5.2665L19.7915 3.29192L22.0414 5.54183L20.0668 7.51642Z" fill="#DBDBDB" stroke="white" stroke-width="2" stroke-linejoin="round"/>
</svg>
