<svg width="28" height="29" viewBox="0 0 28 29" fill="none" xmlns="http://www.w3.org/2000/svg">
<path fill-rule="evenodd" clip-rule="evenodd" d="M19.5815 4.99745C19.5815 7.75747 17.3897 9.99497 14.6861 9.99497C11.9825 9.99497 9.79079 7.75747 9.79079 4.99745C9.79079 2.23743 11.9825 0 14.6861 0C17.3897 0 19.5815 2.23743 19.5815 4.99745ZM8.39207 9.28102C8.39207 11.2525 6.82655 12.8507 4.89539 12.8507C2.96424 12.8507 1.39872 11.2525 1.39872 9.28102C1.39872 7.30957 2.96417 5.7114 4.89539 5.7114C6.82662 5.7114 8.39207 7.30957 8.39207 9.28102ZM0 18.5621C0 16.1964 1.87864 14.2785 4.19603 14.2785H5.59476C5.76378 14.2785 5.93057 14.2887 6.09441 14.3086C5.7723 15.1304 5.59456 16.0312 5.59456 16.9759V24.2735H6.5527e-05L0 18.5621ZM19.0296 14.2785H22.9149V15.807C23.5899 16.0511 24.2151 16.4202 24.759 16.8958L26.0574 16.1306L27.9999 19.5655L26.7022 20.3303C26.767 20.689 26.7996 21.053 26.7994 21.4177C26.7996 21.7824 26.767 22.1464 26.7022 22.5051L28 23.27L26.0574 26.7049L24.759 25.9396C24.2151 26.4152 23.5899 26.7843 22.9149 27.0283V28.5571H19.0296V27.0288C18.3542 26.7848 17.7287 26.4157 17.1846 25.9399L15.887 26.7047L13.9445 23.2698L15.241 22.5057C15.1761 22.1468 15.1436 21.7826 15.1437 21.4177C15.1437 21.0461 15.1771 20.6825 15.241 20.3297L13.9445 19.5656L15.8871 16.1307L17.1845 16.8955C17.7287 16.4197 18.3542 16.0505 19.0296 15.8066V14.2785ZM23.3027 21.4178C23.3027 22.7322 22.259 23.7976 20.9716 23.7976C19.6841 23.7976 18.6404 22.7322 18.6404 21.4178C18.6404 20.1035 19.6841 19.0381 20.9716 19.0381C22.259 19.0381 23.3027 20.1035 23.3027 21.4178ZM6.99321 17.1342C6.99321 13.9799 9.49805 11.4228 12.588 11.4228H16.784C18.2102 11.4228 19.5118 11.9676 20.4999 12.8645C16.0886 13.1186 12.5881 16.8509 12.5881 21.4178C12.5881 22.4191 12.7564 23.3803 13.0657 24.2735H6.99321V17.1342Z" fill="#49987A"/>
</svg>
