<svg width="40" height="40" viewBox="0 0 40 40" fill="none" xmlns="http://www.w3.org/2000/svg">
<path d="M21.7834 17.35C22.7958 15.9355 23.3401 14.2395 23.3401 12.5C23.3401 10.7605 22.7958 9.06458 21.7834 7.65002C22.7314 7.00424 23.853 6.66135 25 6.66669C26.5471 6.66669 28.0309 7.28127 29.1248 8.37523C30.2188 9.46919 30.8334 10.9529 30.8334 12.5C30.8334 14.0471 30.2188 15.5308 29.1248 16.6248C28.0309 17.7188 26.5471 18.3334 25 18.3334C23.853 18.3387 22.7314 17.9958 21.7834 17.35ZM9.16671 12.5C9.16671 11.3463 9.50883 10.2185 10.1498 9.25919C10.7908 8.29991 11.7018 7.55223 12.7677 7.11072C13.8336 6.66921 15.0065 6.55369 16.1381 6.77877C17.2696 7.00385 18.309 7.55943 19.1248 8.37523C19.9406 9.19104 20.4962 10.2304 20.7213 11.362C20.9464 12.4935 20.8308 13.6664 20.3893 14.7323C19.9478 15.7982 19.2002 16.7093 18.2409 17.3503C17.2816 17.9912 16.1538 18.3334 15 18.3334C13.4529 18.3334 11.9692 17.7188 10.8753 16.6248C9.78129 15.5308 9.16671 14.0471 9.16671 12.5ZM12.5 12.5C12.5 12.9945 12.6467 13.4778 12.9214 13.8889C13.1961 14.3001 13.5865 14.6205 14.0433 14.8097C14.5001 14.9989 15.0028 15.0484 15.4878 14.952C15.9727 14.8555 16.4182 14.6174 16.7678 14.2678C17.1174 13.9182 17.3555 13.4727 17.452 12.9877C17.5485 12.5028 17.499 12.0001 17.3097 11.5433C17.1205 11.0865 16.8001 10.6961 16.389 10.4213C15.9778 10.1466 15.4945 10 15 10C14.337 10 13.7011 10.2634 13.2323 10.7323C12.7634 11.2011 12.5 11.837 12.5 12.5ZM26.6667 28.3334V31.6667H3.33337V28.3334C3.33337 28.3334 3.33337 21.6667 15 21.6667C26.6667 21.6667 26.6667 28.3334 26.6667 28.3334ZM23.3334 28.3334C23.1 27.0334 21.1167 25 15 25C8.88337 25 6.78337 27.1834 6.66671 28.3334M26.5834 21.6667C27.6049 22.4612 28.4401 23.4698 29.0303 24.6215C29.6206 25.7732 29.9516 27.0401 30 28.3334V31.6667H36.6667V28.3334C36.6667 28.3334 36.6667 22.2834 26.5667 21.6667H26.5834Z" fill="#EDEDED"/>
</svg>
